<?xml version="1.0" encoding="UTF-8" standalone="no"?><!DOCTYPE svg PUBLIC "-//W3C//DTD SVG 1.1//EN" "http://www.w3.org/Graphics/SVG/1.1/DTD/svg11.dtd"><svg width="100%" height="100%" viewBox="0 0 84 84" version="1.1" xmlns="http://www.w3.org/2000/svg" xmlns:xlink="http://www.w3.org/1999/xlink" xml:space="preserve" xmlns:serif="http://www.serif.com/" style="fill-rule:evenodd;clip-rule:evenodd;stroke-linejoin:round;stroke-miterlimit:1.41421;"><path id="foods" d="M42.446,41.449c0.258,-1.057 2.199,-7.742 12.911,-22.52c8.157,-11.254 19.949,-15.65 22.618,-12.974c2.67,2.676 -1.546,14.733 -12.944,22.671c-15.117,10.528 -21.469,12.643 -22.474,12.935c10.761,10.893 11.408,27.81 1.42,37.821c-10.022,10.045 -39.941,0.573 -39.941,0.573c0,0 -9.45,-29.988 0.571,-40.033c10.021,-10.043 26.975,-9.359 37.839,1.527Zm41.501,-5.855c0.757,2.829 -6.725,9.275 -17.429,10.174c-15.575,1.309 -20.169,-0.077 -20.169,-0.077c0,0 3.308,-3.872 17.429,-10.174c9.813,-4.38 19.413,-2.752 20.169,0.077Zm-35.435,-35.541c2.823,0.758 4.652,10.474 0.077,20.216c-6.657,14.174 -10.151,17.469 -10.151,17.469c0,0 -1.692,-4.808 -0.077,-20.216c1.122,-10.708 7.329,-18.227 10.151,-17.469Z" style="fill:#d6d6d6;"/></svg>