<?xml version="1.0" encoding="UTF-8" standalone="no"?><!DOCTYPE svg PUBLIC "-//W3C//DTD SVG 1.1//EN" "http://www.w3.org/Graphics/SVG/1.1/DTD/svg11.dtd"><svg width="100%" height="100%" viewBox="0 0 84 84" version="1.1" xmlns="http://www.w3.org/2000/svg" xmlns:xlink="http://www.w3.org/1999/xlink" xml:space="preserve" xmlns:serif="http://www.serif.com/" style="fill-rule:evenodd;clip-rule:evenodd;stroke-linejoin:round;stroke-miterlimit:1.41421;"><path id="logout" d="M59,57c0.552,0 1,0.448 1,1c0,3.644 0,16 0,16c0,2.652 -1.054,5.196 -2.929,7.071c-1.875,1.875 -4.419,2.929 -7.071,2.929c-11.098,0 -28.902,0 -40,0c-2.652,0 -5.196,-1.054 -7.071,-2.929c-1.875,-1.875 -2.929,-4.419 -2.929,-7.071c0,-16.161 0,-47.839 0,-64c0,-2.652 1.054,-5.196 2.929,-7.071c1.875,-1.875 4.419,-2.929 7.071,-2.929c11.098,0 28.902,0 40,0c2.652,0 5.196,1.054 7.071,2.929c1.875,1.875 2.929,4.419 2.929,7.071c0,0 0,12.356 0,16c0,0.552 -0.448,1 -1,1c-1.916,0 -6.084,0 -8,0c-0.552,0 -1,-0.448 -1,-1c0,-2.882 0,-11 0,-11c0,-2.761 -2.239,-5 -5,-5c-7.685,0 -22.315,0 -30,0c-2.761,0 -5,2.239 -5,5c0,11.948 0,42.052 0,54c0,2.761 2.239,5 5,5c7.685,0 22.315,0 30,0c2.761,0 5,-2.239 5,-5c0,0 0,-8.118 0,-11c0,-0.552 0.448,-1 1,-1c1.916,0 6.084,0 8,0Zm11.678,-19l-5.85,-5.849c-1.562,-1.562 -1.562,-4.095 0,-5.657c1.563,-1.562 4.095,-1.562 5.657,0c3.3,3.299 8.722,8.721 12.021,12.021c0.413,0.413 0.717,0.894 0.912,1.406c0.377,0.622 0.582,1.34 0.582,2.079c0,0 0,0 0,0c0,0.739 -0.205,1.457 -0.582,2.079c-0.195,0.512 -0.499,0.993 -0.912,1.406c-3.299,3.3 -8.721,8.722 -12.021,12.021c-1.562,1.562 -4.094,1.562 -5.657,0c-1.562,-1.562 -1.562,-4.095 0,-5.657l5.85,-5.849l-34.678,0c-1.105,0 -2,-0.895 -2,-2c0,-1.222 0,-2.778 0,-4c0,-1.105 0.895,-2 2,-2l34.678,0Z" style="fill:#f2f2f2;"/></svg>