<?xml version="1.0" encoding="UTF-8" standalone="no"?><!DOCTYPE svg PUBLIC "-//W3C//DTD SVG 1.1//EN" "http://www.w3.org/Graphics/SVG/1.1/DTD/svg11.dtd"><svg width="100%" height="100%" viewBox="0 0 84 84" version="1.1" xmlns="http://www.w3.org/2000/svg" xmlns:xlink="http://www.w3.org/1999/xlink" xml:space="preserve" xmlns:serif="http://www.serif.com/" style="fill-rule:evenodd;clip-rule:evenodd;stroke-linejoin:round;stroke-miterlimit:1.41421;"><path d="M42,0c23.18,0 42,18.82 42,42c0,23.18 -18.82,42 -42,42c-23.18,0 -42,-18.82 -42,-42c0,-23.18 18.82,-42 42,-42Zm3,39l0,-21c0,-0.796 -0.316,-1.559 -0.879,-2.121c-0.562,-0.563 -1.325,-0.879 -2.121,-0.879c-1.657,0 -3,1.343 -3,3l0,21l-21,0c-0.796,0 -1.559,0.316 -2.121,0.879c-0.563,0.562 -0.879,1.325 -0.879,2.121c0,1.657 1.343,3 3,3l21,0l0,21c0,1.657 1.343,3 3,3c0,0 0,0 0,0c1.657,0 3,-1.343 3,-3l0,-21l21,0c1.657,0 3,-1.343 3,-3c0,0 0,0 0,0c0,-1.657 -1.343,-3 -3,-3l-21,0Z" style="fill:#3bb6ff;"/></svg>